PathFileType	4	(X/Y/Z)	..\data\2015026\dynamic\2015026_C4_04.trc
DataRate	CameraRate	NumFrames	NumMarkers	Units	OrigDataRate	OrigDataStartFrame	OrigNumFrames
100.000000	100.000000	4	48	mm	100.000000	120	160
Frame#	Time	L_IAS			L_IPS			R_IPS			R_IAS			L_FTC			L_FLE			L_FAX			L_TTC			L_FAL			L_FCC			L_FM1			L_FM2			L_FM5			R_FTC			R_FLE			R_FAX			R_TTC			R_FAL			R_FCC			R_FM1			R_FM2			R_FM5			CV7			TV10			SXS			SJN			L_SIA			L_SRS			L_SAA			L_SAE			L_HLE			L_HME			L_UOA			L_RSP			L_UHE			L_HM2			L_HM5			R_SIA			R_SRS			R_SAA			R_SAE			R_HLE			R_HME			R_UOA			R_RSP			R_UHE			R_HM2			R_HM5			
		X1	Y1	Z1	X2	Y2	Z2	X3	Y3	Z3	X4	Y4	Z4	X5	Y5	Z5	X6	Y6	Z6	X7	Y7	Z7	X8	Y8	Z8	X9	Y9	Z9	X10	Y10	Z10	X11	Y11	Z11	X12	Y12	Z12	X13	Y13	Z13	X14	Y14	Z14	X15	Y15	Z15	X16	Y16	Z16	X17	Y17	Z17	X18	Y18	Z18	X19	Y19	Z19	X20	Y20	Z20	X21	Y21	Z21	X22	Y22	Z22	X23	Y23	Z23	X24	Y24	Z24	X25	Y25	Z25	X26	Y26	Z26	X27	Y27	Z27	X28	Y28	Z28	X29	Y29	Z29	X30	Y30	Z30	X31	Y31	Z31	X32	Y32	Z32	X33	Y33	Z33	X34	Y34	Z34	X35	Y35	Z35	X36	Y36	Z36	X37	Y37	Z37	X38	Y38	Z38	X39	Y39	Z39	X40	Y40	Z40	X41	Y41	Z41	X42	Y42	Z42	X43	Y43	Z43	X44	Y44	Z44	X45	Y45	Z45	X46	Y46	Z46	X47	Y47	Z47	X48	Y48	Z48	

121	1.2	1347.469116210938	946.7024536132815	-314.4266052246094	1152.411987304688	932.7561645507815	-278.5130920410157	1147.588256835938	931.3220825195315	-164.7853393554688	1331.485107421875	932.0332641601565	-92.77066802978517	1296.74853515625	864.322448730469	-389.5252685546876	1403.508911132813	455.3127746582032	-303.1823120117188	1384.584716796875	401.5783996582032	-306.5755615234376	1442.682006835938	400.9371032714845	-248.7306365966797	1386.0380859375	63.67919921875001	-272.9736633300782	1336.62646484375	17.46360588073731	-239.4315338134766	1524.365600585938	18.19039344787598	-185.9584045410157	1536.154663085938	32.84721755981446	-240.1084136962891	1493.854614257813	16.52641487121582	-297.3793029785157	1241.682006835938	835.2175292968752	-42.5698471069336	1277.01220703125	441.5999450683595	-72.94467163085939	1224.646728515625	410.8977355957032	-75.60728454589845	1268.1328125	359.4504089355469	-106.9261016845703	952.3567504882815	198.9947967529297	-107.8959350585938	906.0153808593752	210.0966033935547	-160.7842254638672	995.5525512695315	52.43479537963869	-189.0935516357422	994.736755371094	56.05796813964845	-137.616439819336	956.3330078125002	68.3260955810547	-95.11315917968751	1180.888549804688	1420.669189453125	-217.3587646484376	1107.459594726563	1181.365478515625	-228.0087127685547	1332.779541015625	1118.785034179688	-220.5373840332032	1301.380493164063	1335.87158203125	-221.3365325927735	1109.792602539063	1217.265747070313	-305.1505432128907	1137.712158203125	1349.386840820313	-304.5757751464844	1183.840209960938	1357.3974609375	-385.0520629882814	1224.613891601563	1354.636474609375	-403.122039794922	1197.93701171875	1044.015747070313	-460.4283142089845	1162.6708984375	1036.42724609375	-387.496795654297	1157.723266601563	1032.064453125	-434.7010192871095	1266.567993164063	807.4368896484377	-412.6314697265626	1203.256713867188	812.0049438476565	-459.1251220703126	1275.596923828125	724.0526123046876	-410.2464599609376	1185.916625976563	739.4439086914064	-453.2746582031251	1104.059326171875	1219.4931640625	-143.291259765625	1132.3564453125	1349.608276367188	-172.9752349853516	1174.736083984375	1364.301147460938	-65.1796112060547	1228.558837890625	1360.894897460938	-42.29309844970704	1213.299560546875	1049.063598632813	20.28407287597657	1195.918701171875	1029.544921875	-55.18603515625001	1185.998901367188	1019.058837890625	-9.712908744812013	1359.828369140625	839.263610839844	25.6548252105713	1285.186767578125	812.8721313476565	27.26432037353516	1395.14697265625	761.1392822265626	37.91616821289063	1296.934936523438	741.0117187500001	30.26873588562012	
122	1.21	1359.19482421875	948.1114501953127	-315.5467834472657	1163.9501953125	934.8914184570315	-279.0557861328126	1159.506591796875	933.0662841796877	-165.403076171875	1343.695922851563	933.2823486328127	-93.8027801513672	1307.153686523438	865.9031372070315	-390.6163940429689	1407.826049804688	455.243377685547	-303.7031555175782	1388.177856445313	401.4844665527345	-307.0042114257813	1446.1259765625	400.4513244628907	-249.0916290283204	1386.1962890625	63.69067001342775	-273.0198364257813	1336.744750976563	17.42601966857911	-239.4795227050782	1524.3994140625	18.35226440429688	-185.8173065185547	1536.266479492188	33.06285858154298	-240.1294403076172	1493.99462890625	16.75864410400391	-297.5503845214844	1254.055908203125	836.349548339844	-43.52255630493165	1301.483764648438	443.3615722656251	-70.88374328613283	1249.800415039063	413.4476928710939	-73.95787811279298	1293.460327148438	361.5589599609376	-104.47509765625	975.9880371093752	204.8709411621094	-107.8130340576172	930.463562011719	215.4490814208985	-161.5604248046875	1019.851135253906	55.76760482788087	-183.0435180664063	1017.740844726563	60.68850708007814	-132.1585693359375	978.411071777344	75.09439849853517	-91.31479644775392	1193.53857421875	1422.61962890625	-217.8886413574219	1120.01953125	1183.452758789063	-228.6846313476563	1344.8876953125	1120.388427734375	-220.8352050781251	1314.025146484375	1337.615234375	-221.7166290283204	1122.421142578125	1219.371337890625	-305.8862609863282	1150.537719726563	1351.433349609375	-305.2333984375001	1196.904052734375	1359.343872070313	-385.662322998047	1237.8203125	1356.526611328125	-403.5407104492189	1214.516723632813	1045.743774414063	-461.8146057128907	1178.189453125	1037.5263671875	-389.2368469238282	1173.192993164063	1033.272827148438	-436.365936279297	1286.57080078125	810.3918457031252	-413.9771728515626	1223.07861328125	813.730163574219	-460.2468566894532	1297.705932617188	727.3485717773439	-412.0108947753907	1207.568603515625	740.7458496093751	-454.6553955078126	1116.309204101563	1221.576049804688	-144.0029449462891	1144.941528320313	1351.652465820313	-173.5357513427735	1187.111938476563	1366.133422851563	-65.78804779052736	1240.902709960938	1362.60009765625	-42.60484695434571	1222.671630859375	1050.451049804688	18.58945846557618	1205.642456054688	1031.449340820313	-57.05422210693361	1195.233154296875	1021.110412597656	-11.63815402984619	1365.835083007813	838.5798339843752	24.18839263916016	1290.663818359375	813.2996215820315	25.28676986694337	1399.58935546875	759.5571899414064	36.50061035156251	1301.104248046875	741.2163085937501	28.10311698913575	
123	1.22	1370.67431640625	949.4238281250002	-316.6988830566407	1175.347045898438	936.9666748046877	-279.4763488769532	1171.293334960938	934.962585449219	-165.9291381835938	1355.862060546875	934.726501464844	-94.79985809326173	1317.250366210938	867.2687988281252	-391.5949707031251	1411.833374023438	455.180145263672	-304.1344299316407	1391.4560546875	401.3914489746095	-307.3412170410157	1449.234985351563	399.9837036132814	-249.3587188720704	1386.25537109375	63.68692016601564	-273.0505676269532	1336.808471679688	17.34885025024414	-239.4879455566407	1524.36572265625	18.52415466308594	-185.6546173095703	1536.283203125	33.2593116760254	-240.0891265869141	1494.083862304688	16.93575859069825	-297.6023864746094	1266.154174804688	837.8423461914065	-44.43210983276368	1325.68310546875	445.8026428222657	-69.22143554687501	1274.672485351563	416.4275817871095	-72.79956817626955	1318.719604492188	364.2923278808594	-102.6006469726563	1000.560913085938	209.5968627929688	-108.1199722290039	955.709167480469	218.9907684326172	-162.6892700195313	1046.975341796875	58.65760040283205	-176.6942901611328	1043.499267578125	65.16863250732423	-126.3478164672852	1002.904602050781	81.28649139404298	-87.31759643554689	1206.061279296875	1424.582763671875	-218.3159484863282	1132.450805664063	1185.553466796875	-229.3484802246094	1356.835205078125	1121.973510742188	-221.1002502441407	1326.53125	1339.337646484375	-222.0711059570313	1134.854248046875	1221.552368164063	-306.6159362792969	1163.205688476563	1353.536010742188	-305.8323974609376	1209.833618164063	1361.366088867188	-386.2135620117189	1250.88916015625	1358.488891601563	-403.9050292968751	1231.206909179688	1047.57275390625	-463.1251831054689	1193.716796875	1038.690185546875	-390.9832763671876	1188.917236328125	1034.545776367188	-438.0372619628907	1306.615966796875	813.4846191406252	-415.1896362304689	1243.063354492188	815.6030883789065	-461.3631591796876	1319.954956054688	730.8699340820314	-413.7983398437501	1229.473999023438	742.2195434570314	-456.2151184082032	1128.427124023438	1223.64013671875	-144.6945343017578	1157.397094726563	1353.705810546875	-174.0221557617188	1199.35498046875	1367.919921875	-66.3560256958008	1253.125366210938	1364.260131835938	-42.85537338256837	1232.038330078125	1051.819458007813	16.92358589172364	1215.322631835938	1033.329345703125	-58.86877441406251	1204.460327148438	1023.170776367188	-13.5149507522583	1371.650634765625	837.8859863281252	22.72073745727539	1295.985961914063	813.7588500976565	23.32254409790039	1403.812866210938	757.9907226562501	35.07537078857423	1305.072143554688	741.4684448242189	25.98309135437012	
124	1.23	1381.937744140625	950.6773071289065	-317.8818664550782	1186.651977539063	938.975524902344	-279.7741394042969	1182.983764648438	937.009216308594	-166.3540344238282	1367.99853515625	936.3772583007815	-95.7683563232422	1327.14013671875	868.442077636719	-392.4521484375001	1415.549072265625	455.1275634765626	-304.4848327636719	1394.435302734375	401.3167724609376	-307.6021728515626	1452.049926757813	399.5398559570314	-249.5674591064454	1386.234130859375	63.67165756225587	-273.0743713378907	1336.843017578125	17.24834060668946	-239.4630584716797	1524.278198242188	18.66599464416504	-185.4873962402344	1536.228637695313	33.3967628479004	-240.0090789794922	1494.12353515625	17.03268241882325	-297.5736694335938	1278.063598632813	839.692565917969	-45.26727294921876	1349.55419921875	448.8731079101564	-67.96605682373048	1299.1904296875	419.7678833007814	-72.11940002441408	1343.842163085938	367.5928955078126	-101.2660217285157	1025.9765625	213.0393829345704	-108.7288436889649	981.6317138671877	220.6849060058594	-164.054443359375	1076.554321289063	60.9920997619629	-170.2934265136719	1071.707885742188	69.28073883056642	-120.4231567382813	1029.614501953125	86.63931274414064	-83.26482391357423	1218.447998046875	1426.55224609375	-218.6500396728516	1144.759033203125	1187.649291992188	-230.0057067871094	1368.645874023438	1123.56201171875	-221.3537139892579	1338.891235351563	1341.050903320313	-222.4138336181641	1147.105346679688	1223.792724609375	-307.3498535156251	1175.699829101563	1355.678955078125	-306.3772583007813	1222.604858398438	1363.472778320313	-386.7101440429689	1263.791625976563	1360.546264648438	-404.2238769531251	1247.970947265625	1049.527587890625	-464.3425292968751	1209.274291992188	1039.953002929688	-392.6867980957032	1204.916381835938	1035.903930664063	-439.6737365722657	1326.679809570313	816.7288208007815	-416.2586669921876	1263.18212890625	817.656188964844	-462.462860107422	1342.28662109375	734.6246337890626	-415.5892639160157	1251.575927734375	743.9092407226564	-457.9343566894532	1140.430908203125	1225.66943359375	-145.3730621337891	1169.718627929688	1355.751098632813	-174.4451141357422	1211.46728515625	1369.670043945313	-66.89055633544923	1265.2275390625	1365.891357421875	-43.06293106079102	1241.404663085938	1053.188232421875	15.28606986999512	1224.959228515625	1035.2021484375	-60.63219070434572	1213.68359375	1025.252319335938	-15.34412956237793	1377.282470703125	837.1942138671877	21.26992416381836	1301.173706054688	814.275817871094	21.38502883911133	1407.837158203125	756.4677124023439	33.63555526733399	1308.860961914063	741.7987060546876	23.91978454589844	
